<?xml version="1.0" encoding="utf-8"?>
<!-- Generator: Adobe Illustrator 27.0.1, SVG Export Plug-In . SVG Version: 6.00 Build 0)  -->
<svg version="1.1" id="Layer_1" xmlns="http://www.w3.org/2000/svg" xmlns:xlink="http://www.w3.org/1999/xlink" x="0px" y="0px"
	 viewBox="0 0 189.7 34.7" style="enable-background:new 0 0 189.7 34.7;" xml:space="preserve">
<style type="text/css">
	.st0{stroke:#FFFFFF;stroke-width:1.5;stroke-miterlimit:10;}
	.st1{fill:#F78A0C;}
	.st2{display:none;}
	.st3{fill:#FFFFFF;}
</style>
<g>
	<path class="st0" d="M4,32.8V3.6H5v28.3h9.8v0.9H4z"/>
	<path class="st0" d="M18.4,3.6v29.2h-0.9V3.6H18.4z"/>
	<path class="st0" d="M34.2,10.8v1.9h-0.9v-2c0-3.5-1.3-6.5-5.2-6.5c-3.9,0-5.2,3-5.2,6.5v14.9c0,3.5,1.3,6.5,5.2,6.5
		c3.8,0,5.2-2.9,5.2-6.5V19h-4.5v-0.8h5.5v7.4c0,4-1.7,7.4-6.1,7.4c-4.4,0-6.1-3.3-6.1-7.4V10.8c0-4,1.7-7.4,6.1-7.4
		C32.5,3.4,34.2,6.7,34.2,10.8z"/>
	<path class="st0" d="M38.4,18.6v14.2h-0.9V3.6h0.9v14.2h10.6V3.6h0.9v29.2h-0.9V18.6H38.4z"/>
	<path class="st0" d="M58.2,32.8V4.5h-6.4V3.6h13.7v0.9h-6.4v28.3H58.2z"/>
	<path class="st0" d="M78.7,10.7v0.5h-0.9v-0.6c0-3.5-1.3-6.4-5.1-6.4c-3.8,0-5.1,2.9-5.1,6.3c0,7.5,11.2,7.3,11.2,15.2
		c0,4-1.7,7.3-6.1,7.3c-4.4,0-6.1-3.2-6.1-7.3v-1.4h0.9v1.5c0,3.5,1.4,6.3,5.2,6.3c3.8,0,5.2-2.8,5.2-6.3c0-7.4-11.2-7.1-11.2-15.2
		c0-4.3,1.8-7.2,6-7.2C77,3.4,78.7,6.7,78.7,10.7z"/>
</g>
<path class="st1" d="M99.7,10.3c0,4.8-3.1,7.9-7.5,7.9c-4.4,0-7.5-3-7.5-7.9c0-4.8,3.1-7.8,7.5-7.8C96.6,2.5,99.7,5.5,99.7,10.3z
	 M96.3,10.3c0-3.1-1.7-5-4.1-5c-2.4,0-4.1,1.8-4.1,5c0,3.1,1.7,5,4.1,5C94.6,15.3,96.3,13.4,96.3,10.3z"/>
<path class="st1" d="M108.9,12.9c0.2,0.5,0.4,1.2,0.5,1.8h0.1c0.1-0.6,0.3-1.2,0.5-1.7l3.2-10.3h3.4L111.2,18h-3.6l-5.3-15.4h3.4
	L108.9,12.9z"/>
<path class="st1" d="M123.9,5.4v3.5h6v2.6h-6v3.8h6.9V18h-10.2V2.6h10.2v2.7H123.9z"/>
<path class="st1" d="M148.8,18c0,0-1.6,0.3-2.7,0.2c-4.3-0.4-3.4-5.4-6.9-5.4h-0.7V18h-3.3V2.6h5.2c4,0,6.1,1.6,6.1,5.2
	c0,2.1-1.1,3.6-3.1,4.3c1.7,0.8,1.8,3.2,3.6,3.4c0.3,0,1.5,0,1.5,0L148.8,18z M140,10.4c2,0,3.3-0.9,3.3-2.6c0-1.7-1.1-2.6-3.1-2.6
	h-1.7v5.2H140z"/>
<g class="st2">
	<rect x="33.2" y="-61.8" style="display:inline;fill:none;" width="178.1" height="47.4"/>
	
		<text transform="matrix(1 0 0 1 33.2365 -42.0156)" style="display:inline; font-family:'BasicSans-Bold'; font-size:28px; letter-spacing:1;">LIGHTS</text>
</g>
<path class="st3" d="M98.4,33.8c0,0-0.8,0.3-1.9,0.3c-1.8,0-2.8-0.7-3.1-2.1C93,32.8,92,34,89.2,34c-2.9,0-4.5-1.4-4.5-3.6
	c0-3.3,3.4-4.1,8.4-4.2h0.2v-0.6c0-1.3-0.8-2.2-2.4-2.2c-1.5,0-2.3,0.6-2.3,1.5c0,0.2,0,0.4,0.1,0.5L85.3,26c0,0-0.2-0.6-0.2-1.3
	c0-2.5,2.2-4.2,5.9-4.2c3.9,0,6,2,6,5.3v4.3c0,0.6,0.2,0.9,0.7,0.9c0.2,0,0.3,0,0.5-0.1L98.4,33.8z M93.3,29.2v-1.1h-0.2
	c-3.2,0.1-4.6,0.5-4.6,1.8c0,0.9,0.7,1.3,1.8,1.3C92.2,31.2,93.3,30.3,93.3,29.2z"/>
<path class="st3" d="M122.3,25.8v8.1h-3.8v-7.4c0-1.6-0.8-2.6-2.3-2.6c-1.9,0-2.7,1.7-2.7,3.2v6.8h-3.8v-7.4c0-1.6-0.8-2.6-2.3-2.6
	c-1.9,0-2.6,1.7-2.6,3.2v6.8h-3.8V20.7l3-0.1c0.3,0.8,0.5,2.2,0.5,2.8h0.1c0.6-1.6,1.9-2.8,4.1-2.8c2.4,0,3.9,1.2,4.5,3
	c0.6-1.7,1.9-3,4.3-3C120.6,20.5,122.3,22.8,122.3,25.8z"/>
<path class="st3" d="M136.1,29.6l1.8,2.1c-0.9,1.2-2.8,2.3-5.7,2.3c-4.5,0-7.1-2.8-7.1-6.8c0-3.9,2.7-6.8,6.7-6.8
	c3.9,0,6.1,2.6,6.1,6.2c0,0.8-0.1,1.4-0.1,1.4h-8.9c0.3,1.8,1.6,3,3.8,3C134.6,31.1,135.6,30.2,136.1,29.6z M128.9,26.1h5.5
	c0-1.6-1-2.7-2.6-2.7C130.4,23.4,129.2,24.4,128.9,26.1z"/>
<path class="st3" d="M150.4,20.9l-1,3.7c-0.4-0.3-0.9-0.5-1.5-0.5c-1.5,0-2.7,1.2-2.7,3.4v6.4h-3.8V20.7l3-0.1
	c0.3,0.9,0.5,2.4,0.5,2.9h0.1c0.5-1.7,1.5-3,3.5-3C149.2,20.5,149.8,20.6,150.4,20.9z"/>
<path class="st3" d="M155.5,18.8c-1.4,0-2.5-1-2.5-2.4c0-1.4,1.1-2.4,2.5-2.4s2.5,1,2.5,2.4C158,17.8,156.9,18.8,155.5,18.8z
	 M153.6,20.7l3.8-0.1v13.3h-3.8V20.7z"/>
<path class="st3" d="M173,25.1c0,0.6-0.1,1-0.1,1l-3.4,0.2c0-0.1,0.1-0.3,0.1-0.6c0-1.1-0.7-2.1-2.2-2.1c-1.7,0-2.9,1.4-2.9,3.6
	c0,2.2,1.1,3.7,3.4,3.7c2.1,0,3.2-1.1,3.6-1.5l1.9,2.4c-0.8,1.1-2.8,2.3-5.7,2.3c-4.4,0-7.1-2.8-7.1-6.7c0-4.1,2.8-6.8,6.9-6.8
	C171,20.5,173,22.6,173,25.1z"/>
<path class="st3" d="M189.7,33.8c0,0-0.8,0.3-1.9,0.3c-1.8,0-2.8-0.7-3.1-2.1c-0.4,0.8-1.5,2.1-4.3,2.1c-2.9,0-4.5-1.4-4.5-3.6
	c0-3.3,3.4-4.1,8.4-4.2h0.2v-0.6c0-1.3-0.8-2.2-2.4-2.2c-1.5,0-2.3,0.6-2.3,1.5c0,0.2,0,0.4,0.1,0.5l-3.4,0.6c0,0-0.2-0.6-0.2-1.3
	c0-2.5,2.2-4.2,5.9-4.2c3.9,0,6,2,6,5.3v4.3c0,0.6,0.2,0.9,0.7,0.9c0.2,0,0.3,0,0.5-0.1L189.7,33.8z M184.6,29.2v-1.1h-0.2
	c-3.2,0.1-4.6,0.5-4.6,1.8c0,0.9,0.7,1.3,1.8,1.3C183.4,31.2,184.6,30.3,184.6,29.2z"/>
<path class="st3" d="M161.1,12c-1.4,0-2.5-1-2.5-2.4c0-1.4,1.1-2.4,2.5-2.4s2.5,1,2.5,2.4C163.6,11,162.5,12,161.1,12z"/>
<path class="st3" d="M166.3,5.4c-1.4,0-2.5-1-2.5-2.4c0-1.4,1.1-2.4,2.5-2.4s2.5,1,2.5,2.4C168.8,4.4,167.7,5.4,166.3,5.4z"/>
</svg>
