<svg width="219" height="26" viewBox="0 0 219 26" fill="none" xmlns="http://www.w3.org/2000/svg">
<path d="M1.7002 17.8638V2.14111C1.7002 1.54704 1.50488 1.05469 1.11426 0.664062C1.08171 0.63151 1.01253 0.59082 0.906738 0.541992C0.800944 0.493164 0.748047 0.391439 0.748047 0.236816C0.748047 0.082194 0.800944 0.00488281 0.906738 0.00488281H4.86182C4.96761 0.00488281 5.02051 0.078125 5.02051 0.224609C5.02051 0.362956 5.00016 0.448405 4.95947 0.480957C4.92692 0.505371 4.87809 0.533854 4.81299 0.566406C4.74788 0.59082 4.66243 0.655924 4.55664 0.761719C4.45898 0.859375 4.35319 1.04655 4.23926 1.32324C4.12533 1.5918 4.06836 1.86442 4.06836 2.14111V18.0225H12.1738C13.0934 18.0225 13.6916 17.9167 13.9683 17.7051C14.1147 17.6074 14.2287 17.4976 14.3101 17.3755C14.3914 17.2534 14.4525 17.1924 14.4932 17.1924C14.542 17.1842 14.6234 17.2005 14.7373 17.2412C14.8594 17.2819 14.9204 17.3185 14.9204 17.3511C14.9204 17.3836 14.8634 17.5423 14.7495 17.8271L14.3589 18.8159C14.2124 19.1821 14.1107 19.4629 14.0537 19.6582C14.0049 19.8454 13.9357 19.9593 13.8462 20H0.906738C0.800944 20 0.748047 19.9308 0.748047 19.7925C0.748047 19.646 0.764323 19.5605 0.796875 19.5361C0.837565 19.5036 0.890462 19.4751 0.955566 19.4507C1.02067 19.4181 1.10205 19.353 1.19971 19.2554C1.3055 19.1496 1.41536 18.9624 1.5293 18.6938C1.64323 18.4172 1.7002 18.1405 1.7002 17.8638ZM19.3149 2.2876V3.27637C19.3149 3.35775 19.2946 3.41471 19.2539 3.44727C19.2132 3.47982 19.0382 3.55306 18.729 3.66699C18.4279 3.78092 18.2041 3.87451 18.0576 3.94775C17.9111 4.021 17.785 4.07389 17.6792 4.10645C17.5815 4.139 17.5205 4.14307 17.4961 4.11865C17.4717 4.0861 17.4595 3.92741 17.4595 3.64258V2.48291C17.4595 2.4585 17.4554 2.42188 17.4473 2.37305C17.4473 2.32422 17.4473 2.29167 17.4473 2.27539C17.4554 2.25911 17.4595 2.2347 17.4595 2.20215C17.4676 2.1696 17.488 2.13704 17.5205 2.10449C17.5531 2.07194 17.7199 1.9987 18.021 1.88477C18.3302 1.77083 18.5581 1.67725 18.7046 1.604C19.0382 1.44938 19.2214 1.39242 19.2539 1.43311C19.2946 1.46566 19.3149 1.75049 19.3149 2.2876ZM16.5317 20C16.4259 20 16.373 19.9268 16.373 19.7803C16.373 19.6338 16.4056 19.5402 16.4707 19.4995C16.5358 19.4588 16.6213 19.4181 16.7271 19.3774C17.1258 19.2147 17.3293 18.8241 17.3374 18.2056V11.4062C17.3374 11.1458 17.2723 10.9587 17.1421 10.8447C17.0119 10.7308 16.8735 10.6698 16.7271 10.6616C16.5806 10.6535 16.4788 10.6291 16.4219 10.5884C16.3649 10.5477 16.3364 10.4663 16.3364 10.3442C16.3364 10.214 16.3405 10.1408 16.3486 10.1245C16.3649 10.1082 16.3893 10.092 16.4219 10.0757C16.4544 10.0513 16.4748 10.035 16.4829 10.0269L18.6802 8.40332C18.7371 8.36263 18.7819 8.35449 18.8145 8.37891C18.847 8.39518 18.9447 8.42773 19.1074 8.47656C19.2702 8.52539 19.3516 8.61491 19.3516 8.74512V18.2544C19.3516 18.8485 19.5509 19.2228 19.9497 19.3774C20.1857 19.4751 20.3037 19.5687 20.3037 19.6582C20.3037 19.8861 20.2508 20 20.145 20H16.5317ZM24.979 16.7651C24.743 16.8465 24.8 17.0133 25.1499 17.2656C25.508 17.5098 26.0695 17.7173 26.8345 17.8882C27.5994 18.0509 28.2505 18.1771 28.7876 18.2666C29.3328 18.348 29.8984 18.4782 30.4844 18.6572C31.0785 18.8281 31.5871 19.0234 32.0103 19.2432C32.4416 19.4548 32.7956 19.7559 33.0723 20.1465C33.349 20.5371 33.4873 20.9928 33.4873 21.5137C33.4873 22.0345 33.3693 22.5065 33.1333 22.9297C32.3521 24.3457 30.4681 25.0537 27.4814 25.0537C26.1143 25.0537 24.8895 24.7282 23.8071 24.0771C22.7248 23.4261 22.0656 22.4984 21.8296 21.2939V21.1475C21.8296 21.0824 21.8255 21.0335 21.8174 21.001L23.9292 19.1943C23.9943 19.1943 24.0798 19.2472 24.1855 19.353C24.2913 19.4588 24.3442 19.5443 24.3442 19.6094C24.3442 19.6745 24.2791 19.7721 24.1489 19.9023C24.0187 20.0326 23.9536 20.3906 23.9536 20.9766C23.9536 21.5625 24.1978 22.0915 24.686 22.5635C25.1743 23.0436 25.7562 23.3732 26.4316 23.5522C27.8883 23.7964 29.1294 23.7191 30.1548 23.3203C30.5129 23.182 30.8058 22.9704 31.0337 22.6855C31.2616 22.4089 31.3755 22.1077 31.3755 21.7822C31.3755 21.4648 31.2127 21.2044 30.8872 21.001C30.4396 20.7243 29.3166 20.3784 27.5181 19.9634C25.7277 19.5483 24.389 19.1577 23.502 18.7915C23.3148 18.7101 23.2212 18.6491 23.2212 18.6084C23.2212 18.5596 23.3433 18.2992 23.5874 17.8271C23.8397 17.3551 24.1204 16.8872 24.4297 16.4233C23.8682 16.0164 23.4165 15.5037 23.0747 14.8853C22.741 14.2668 22.5742 13.6076 22.5742 12.9077C22.5742 11.5405 23.0015 10.4256 23.856 9.56299C24.7186 8.70036 25.7887 8.26904 27.0664 8.26904C28.3522 8.26904 29.4102 8.67188 30.2402 9.47754L30.2891 9.46533C30.5983 8.80615 30.7611 8.46029 30.7773 8.42773C30.8018 8.38704 30.8302 8.3667 30.8628 8.3667H32.9014C32.9583 8.3667 33.0153 8.42773 33.0723 8.5498C33.1374 8.66374 33.1496 8.73291 33.1089 8.75732C32.9217 8.84684 32.6938 8.94857 32.4253 9.0625C31.8719 9.2985 31.408 9.78678 31.0337 10.5273C31.408 11.2272 31.5952 11.9678 31.5952 12.749C31.5952 14.0348 31.1558 15.109 30.2769 15.9717C29.4061 16.8343 28.3034 17.2656 26.9688 17.2656C26.2852 17.2656 25.6219 17.0988 24.979 16.7651ZM26.4072 9.7583C24.8447 9.7583 24.0635 10.6087 24.0635 12.3096C24.0635 13.3024 24.4338 14.1366 25.1743 14.812C25.923 15.4793 26.7368 15.813 27.6157 15.813C28.5028 15.813 29.1294 15.6177 29.4956 15.2271C29.8618 14.8364 30.0449 14.1813 30.0449 13.2617C30.0449 12.3421 29.695 11.5283 28.9951 10.8203C28.3034 10.1123 27.4408 9.7583 26.4072 9.7583ZM34.9155 2.04346L34.9277 1.82373C34.9277 1.79932 34.9766 1.74642 35.0742 1.66504L37.2715 0.0415039C37.304 0.0170898 37.3936 0.00488281 37.54 0.00488281C37.6865 0.00488281 37.7882 0.0252279 37.8452 0.065918C37.9022 0.0984701 37.9307 0.204264 37.9307 0.383301V9.64844C38.2074 9.48568 38.4149 9.36768 38.5532 9.29443L38.9316 9.09912C40.0791 8.52946 41.1411 8.24463 42.1177 8.24463C43.1024 8.24463 44.0708 8.59456 45.0229 9.29443C45.4543 9.61182 45.8042 9.99837 46.0728 10.4541C46.3494 10.9017 46.4878 11.3696 46.4878 11.8579V17.8638C46.4878 17.9045 46.4837 17.994 46.4756 18.1323C46.4756 18.2625 46.4797 18.348 46.4878 18.3887C46.5448 18.9095 46.7157 19.231 47.0005 19.353C47.2935 19.467 47.4399 19.5687 47.4399 19.6582C47.4399 19.8861 47.387 20 47.2812 20H43.6802C43.5744 20 43.5215 19.9268 43.5215 19.7803C43.5215 19.6338 43.554 19.5402 43.6191 19.4995C43.6842 19.4588 43.7697 19.4181 43.8755 19.3774C43.9813 19.3368 44.0667 19.2839 44.1318 19.2188C44.1969 19.1536 44.2539 19.0804 44.3027 18.999C44.3597 18.9176 44.3963 18.8241 44.4126 18.7183C44.437 18.6125 44.4492 18.5352 44.4492 18.4863C44.4574 18.4294 44.4574 18.3236 44.4492 18.1689C44.4492 18.0143 44.4492 17.9126 44.4492 17.8638V12.1631C44.4492 11.6667 44.2824 11.2354 43.9487 10.8691C43.3302 10.1937 42.4554 9.85596 41.3242 9.85596C40.2012 9.85596 39.07 10.1408 37.9307 10.7104V17.8638C37.9307 17.9045 37.9266 17.994 37.9185 18.1323C37.9185 18.2625 37.9185 18.348 37.9185 18.3887C37.9836 18.9095 38.1585 19.231 38.4434 19.353C38.7363 19.467 38.8828 19.5687 38.8828 19.6582C38.8828 19.8861 38.8299 20 38.7241 20H35.123C35.0173 20 34.9644 19.9268 34.9644 19.7803C34.9644 19.6338 34.9969 19.5402 35.062 19.4995C35.1271 19.4588 35.2126 19.4181 35.3184 19.3774C35.4242 19.3368 35.5055 19.2879 35.5625 19.231C35.8148 18.9787 35.9368 18.6979 35.9287 18.3887C35.9287 18.0713 35.9287 17.8963 35.9287 17.8638V3.04443C35.9287 2.78402 35.8636 2.59684 35.7334 2.48291C35.6032 2.36898 35.4648 2.30794 35.3184 2.2998C35.1719 2.29167 35.0742 2.26725 35.0254 2.22656C34.9521 2.17773 34.9155 2.1167 34.9155 2.04346ZM50.9556 6.19385C50.98 6.03109 51.1265 5.94971 51.395 5.94971C51.6717 5.94971 51.8101 6.03109 51.8101 6.19385V8.3667H53.9707C54.3857 8.3667 54.5933 8.4196 54.5933 8.52539V9.59961C54.5933 9.7054 54.3857 9.7583 53.9707 9.7583H51.8101V17.3389C51.8101 18.3073 52.0949 18.8485 52.6646 18.9624C53.0959 19.0519 53.5435 18.8892 54.0073 18.4741C54.1945 18.3032 54.3247 18.2625 54.3979 18.3521C54.4793 18.4416 54.5363 18.5107 54.5688 18.5596C54.6014 18.6084 54.6177 18.6572 54.6177 18.7061C54.6177 18.7467 54.6177 18.7793 54.6177 18.8037C54.6258 18.8444 54.5811 18.9136 54.4834 19.0112L54.2271 19.231C53.3807 19.9634 52.5547 20.297 51.749 20.2319C50.9515 20.1668 50.39 19.6989 50.0645 18.8281C49.8854 18.3561 49.7959 17.7824 49.7959 17.1069V9.7583H49.2344C48.8193 9.7583 48.6118 9.7054 48.6118 9.59961V8.52539C48.6118 8.4196 48.7827 8.3667 49.1245 8.3667C49.7267 8.3667 50.158 8.15511 50.4185 7.73193C50.687 7.30876 50.866 6.79606 50.9556 6.19385ZM63.0649 10.8569C63.0649 10.9465 62.9836 10.9912 62.8208 10.9912C62.658 10.9831 62.5604 10.979 62.5278 10.979C62.4302 10.979 62.3569 10.9098 62.3081 10.7715C62.1291 10.3483 61.7547 10.0024 61.1851 9.73389C60.6154 9.45719 60.0579 9.31885 59.5127 9.31885C58.9674 9.31885 58.4954 9.45312 58.0967 9.72168C57.6979 9.99023 57.4985 10.332 57.4985 10.7471C57.4985 11.154 57.6816 11.4958 58.0479 11.7725C58.4141 12.0492 58.7843 12.2892 59.1587 12.4927C59.5412 12.688 59.7935 12.8223 59.9155 12.8955L61.0752 13.5547C62.1169 14.1243 62.8086 14.7266 63.1504 15.3613C63.3864 15.8008 63.5044 16.342 63.5044 16.9849C63.5044 17.6196 63.3213 18.2015 62.9551 18.7305C62.2471 19.7477 61.063 20.2563 59.4028 20.2563C58.5565 20.2563 57.5392 20.1099 56.3511 19.8169C56.3185 19.8006 56.2616 19.7843 56.1802 19.7681C56.0988 19.7518 56.0215 19.7274 55.9482 19.6948C55.8831 19.6623 55.8465 19.5768 55.8384 19.4385C55.8302 19.3001 55.7773 19.0153 55.6797 18.584C55.582 18.1445 55.5332 17.8638 55.5332 17.7417C55.5332 17.6196 55.5413 17.5464 55.5576 17.522C55.582 17.4894 55.6064 17.465 55.6309 17.4487C55.6553 17.4243 55.6919 17.404 55.7407 17.3877C55.7896 17.3633 55.8262 17.347 55.8506 17.3389C55.875 17.3307 55.9116 17.3185 55.9604 17.3022C56.1476 17.2453 56.3185 17.3389 56.4731 17.583C56.6359 17.819 57.0957 18.0876 57.8525 18.3887C58.6175 18.6816 59.2767 18.8281 59.8301 18.8281C60.3835 18.8281 60.8311 18.6898 61.1729 18.4131C61.5228 18.1283 61.6978 17.7498 61.6978 17.2778C61.6978 16.6187 61.3031 16.0815 60.5137 15.6665L58.3164 14.4946C57.7223 14.161 57.3195 13.9046 57.1079 13.7256C56.6034 13.2861 56.2493 12.867 56.0459 12.4683C55.8424 12.0695 55.7407 11.6178 55.7407 11.1133C55.7407 10.1204 56.1069 9.37581 56.8394 8.87939C57.5799 8.38298 58.5931 8.13477 59.8789 8.13477C60.4486 8.13477 61.0752 8.17546 61.7588 8.25684C62.4505 8.33822 62.8778 8.46436 63.0405 8.63525C63.0649 8.65967 63.0771 8.96891 63.0771 9.56299C63.0853 10.1571 63.0812 10.5884 63.0649 10.8569ZM74.3931 10.271C73.8641 10.6047 73.4735 11.0441 73.2212 11.5894C72.9689 12.1265 72.8428 12.8101 72.8428 13.6401C72.8428 14.4702 73.0706 15.3003 73.5264 16.1304C73.9902 16.9604 74.6209 17.6196 75.4185 18.1079C76.2241 18.5881 77.0216 18.8281 77.811 18.8281C78.6086 18.8281 79.2555 18.6491 79.752 18.291C80.2565 17.9329 80.639 17.4691 80.8994 16.8994C81.168 16.3298 81.3022 15.7031 81.3022 15.0195C81.3022 13.5791 80.8424 12.3421 79.9229 11.3086C79.0114 10.2751 77.7866 9.7583 76.2485 9.7583C75.5405 9.7583 74.922 9.9292 74.3931 10.271ZM72.8794 18.5107C72.3423 17.9899 71.9069 17.3633 71.5732 16.6309C71.2477 15.8984 71.085 15.0317 71.085 14.0308C71.085 13.0298 71.3413 12.0573 71.854 11.1133C72.3667 10.1693 73.1032 9.43278 74.0635 8.90381C75.0238 8.37484 76.0207 8.11035 77.0542 8.11035C78.9422 8.11035 80.4437 8.70443 81.5586 9.89258C82.6735 11.0726 83.231 12.509 83.231 14.2017C83.2391 15.8944 82.6532 17.3226 81.4731 18.4863C80.2931 19.6419 78.8039 20.2197 77.0054 20.2197C76.2404 20.2197 75.4958 20.0651 74.7715 19.7559C74.0553 19.4466 73.4246 19.0316 72.8794 18.5107ZM95.9507 8.3667C96.0565 8.3667 96.1094 8.43587 96.1094 8.57422C96.1094 8.76953 96.0768 8.93229 96.0117 9.0625L91.1045 18.9014C90.8441 19.4222 90.6406 19.7355 90.4941 19.8413C90.3558 19.9471 90.2378 20 90.1401 20C90.0425 20 89.9489 19.9797 89.8594 19.939C89.778 19.8983 89.6966 19.8291 89.6152 19.7314C89.542 19.6338 89.481 19.5483 89.4321 19.4751C89.3914 19.4019 89.3304 19.292 89.249 19.1455C89.1758 18.9909 89.1229 18.8851 89.0903 18.8281L84.0977 9.27002C83.9593 9.0096 83.8901 8.79395 83.8901 8.62305C83.8901 8.45215 83.943 8.3667 84.0488 8.3667H87.2227C87.3285 8.3667 87.3813 8.43994 87.3813 8.58643C87.3813 8.72477 87.3285 8.82243 87.2227 8.87939C86.8971 9.04215 86.7303 9.17236 86.7222 9.27002C86.7222 9.49788 86.7384 9.62809 86.771 9.66064L90.2378 16.3501H90.5918L93.9243 9.66064C93.9569 9.62809 93.9731 9.53857 93.9731 9.39209C93.9731 9.19678 93.8633 9.05843 93.6436 8.97705C93.4238 8.88753 93.314 8.79801 93.314 8.7085C93.314 8.48063 93.3669 8.3667 93.4727 8.3667H95.9507ZM105.521 11.5161C105.041 10.1408 104.003 9.45312 102.408 9.45312C101.684 9.45312 101.021 9.64844 100.418 10.0391C99.8162 10.4215 99.3524 10.9139 99.0269 11.5161C98.7095 12.1102 98.5508 12.6717 98.5508 13.2007C98.5508 13.7297 98.5671 13.9901 98.5996 13.9819L105.497 11.5771V11.5039L105.521 11.5161ZM98.8682 15.2759C99.2181 16.2362 99.8081 16.9889 100.638 17.5342C101.468 18.0794 102.412 18.3521 103.47 18.3521C104.813 18.3521 106.038 17.7214 107.145 16.46C107.315 16.2972 107.568 16.3826 107.901 16.7163C107.926 16.7407 107.922 16.7773 107.889 16.8262C106.961 18.112 106.241 18.9339 105.729 19.292C104.858 19.9105 103.853 20.2197 102.713 20.2197C101.94 20.2197 101.192 20.0651 100.467 19.7559C98.978 19.1048 97.916 18.0632 97.2812 16.6309C96.9557 15.8984 96.793 15.0317 96.793 14.0308C96.793 13.0216 97.0452 12.0532 97.5498 11.1255C98.0625 10.1896 98.799 9.45312 99.7593 8.91602C100.728 8.37891 101.839 8.11035 103.092 8.11035C104.622 8.11035 105.981 8.81836 107.169 10.2344C107.771 10.9505 108.072 11.5202 108.072 11.9434L98.8682 15.2759ZM109.952 10.4053L109.964 10.1855C109.964 10.1449 109.985 10.1123 110.025 10.0879C110.074 10.0553 110.103 10.035 110.111 10.0269L112.308 8.40332C112.341 8.37891 112.43 8.3667 112.577 8.3667C112.731 8.3667 112.837 8.38704 112.894 8.42773C112.951 8.46029 112.979 8.56608 112.979 8.74512V10.8447C113.028 10.7633 113.093 10.6738 113.175 10.5762C113.761 9.84375 114.371 9.27816 115.006 8.87939C115.641 8.48063 116.365 8.28125 117.179 8.28125C117.439 8.28125 117.582 8.3138 117.606 8.37891C117.744 8.75326 117.858 9.10726 117.948 9.44092L118.326 10.8813C118.351 10.9709 118.285 11.0604 118.131 11.1499C117.984 11.2313 117.87 11.2679 117.789 11.2598C117.708 11.2516 117.622 11.1743 117.533 11.0278L117.398 10.8081C116.959 10.4012 116.446 10.2425 115.86 10.332C115.283 10.4134 114.733 10.625 114.212 10.9668C113.7 11.3086 113.321 11.6789 113.077 12.0776C113.069 12.0939 113.049 12.1265 113.016 12.1753C112.992 12.216 112.979 12.2445 112.979 12.2607V17.8638C112.979 17.9045 112.975 17.994 112.967 18.1323C112.967 18.2625 112.967 18.348 112.967 18.3887C113.032 18.9014 113.207 19.2188 113.492 19.3408C113.777 19.4629 113.924 19.5687 113.932 19.6582C113.932 19.8861 113.879 20 113.773 20H110.16C110.054 20 110.001 19.9268 110.001 19.7803C110.001 19.6338 110.034 19.5402 110.099 19.4995C110.164 19.4588 110.245 19.4181 110.343 19.3774C110.449 19.3368 110.53 19.2879 110.587 19.231C110.709 19.1089 110.803 18.9705 110.868 18.8159C110.941 18.6532 110.973 18.4619 110.965 18.2422C110.965 18.0225 110.965 17.8963 110.965 17.8638V11.4062C110.957 11.1377 110.888 10.9505 110.758 10.8447C110.636 10.7308 110.501 10.6698 110.355 10.6616C110.208 10.6535 110.111 10.6331 110.062 10.6006C109.989 10.5436 109.952 10.4785 109.952 10.4053ZM124.869 18.1323C124.869 18.1323 127.547 12.1387 132.901 0.151367C132.942 0.0537109 133.141 0.00488281 133.5 0.00488281C133.858 0.00488281 134.061 0.0537109 134.11 0.151367L142.386 18.1323C142.704 18.8729 143.017 19.3164 143.326 19.4629C143.432 19.5117 143.485 19.6134 143.485 19.7681C143.485 19.9227 143.432 20 143.326 20H138.907C138.801 20 138.749 19.9308 138.749 19.7925C138.749 19.646 138.765 19.5605 138.797 19.5361C138.838 19.5036 138.891 19.4751 138.956 19.4507C139.021 19.4181 139.074 19.3815 139.115 19.3408C139.424 19.0316 139.579 18.7467 139.579 18.4863C139.579 18.2178 139.55 17.998 139.493 17.8271L137.723 13.6401H128.922L127.188 17.8271C127.132 17.998 127.103 18.1283 127.103 18.2178V18.3521C127.103 18.3602 127.103 18.3683 127.103 18.3765C127.103 18.7101 127.258 19.0316 127.567 19.3408C127.599 19.3734 127.669 19.4141 127.774 19.4629C127.88 19.5117 127.933 19.6134 127.933 19.7681C127.933 19.9227 127.88 20 127.774 20H123.929C123.823 20 123.771 19.9308 123.771 19.7925C123.771 19.646 123.787 19.5605 123.819 19.5361C123.86 19.5036 123.913 19.471 123.978 19.4385C124.247 19.3245 124.544 18.8892 124.869 18.1323ZM129.789 11.6992C129.772 11.7236 129.768 11.7562 129.776 11.7969C129.785 11.8294 129.801 11.8457 129.825 11.8457H136.795C136.82 11.8457 136.836 11.8294 136.844 11.7969C136.852 11.7562 136.848 11.7236 136.832 11.6992L133.304 4.0332H133.219L129.789 11.6992ZM144.84 10.4053L144.852 10.1855C144.852 10.1449 144.872 10.1123 144.913 10.0879C144.962 10.0553 144.99 10.035 144.999 10.0269L147.196 8.40332C147.228 8.37891 147.318 8.3667 147.464 8.3667C147.611 8.3667 147.713 8.38704 147.77 8.42773C147.826 8.46029 147.855 8.56608 147.855 8.74512V9.64844C149.336 8.71257 150.687 8.24463 151.908 8.24463C152.469 8.24463 152.99 8.38704 153.47 8.67188C153.95 8.95671 154.337 9.34733 154.63 9.84375C157.649 7.9069 159.879 7.72786 161.319 9.30664C161.962 10.0065 162.284 10.8569 162.284 11.8579V18.3887C162.284 18.5677 162.333 18.759 162.43 18.9624C162.528 19.1577 162.687 19.3001 162.906 19.3896C163.126 19.4792 163.236 19.5687 163.236 19.6582C163.236 19.8861 163.183 20 163.077 20H159.5C159.395 20 159.342 19.9268 159.342 19.7803C159.342 19.6338 159.374 19.5402 159.439 19.4995C159.513 19.4588 159.598 19.4181 159.696 19.3774C159.802 19.3368 159.887 19.2839 159.952 19.2188C160.025 19.1536 160.086 19.0804 160.135 18.999C160.184 18.9176 160.217 18.8241 160.233 18.7183C160.257 18.6125 160.27 18.5352 160.27 18.4863C160.278 18.4294 160.278 18.3236 160.27 18.1689C160.27 18.0143 160.27 17.9126 160.27 17.8638V12.1631C160.261 11.3656 160.103 10.7837 159.793 10.4175C159.484 10.0431 158.988 9.85596 158.304 9.85596C157.214 9.85596 156.115 10.1326 155.008 10.686C155.122 11.0685 155.179 11.4591 155.179 11.8579V18.3887C155.179 18.5677 155.228 18.759 155.326 18.9624C155.423 19.1577 155.582 19.3001 155.802 19.3896C156.021 19.4792 156.131 19.5687 156.131 19.6582C156.131 19.8861 156.078 20 155.973 20H152.384C152.278 20 152.225 19.9268 152.225 19.7803C152.225 19.6338 152.258 19.5402 152.323 19.4995C152.396 19.4588 152.481 19.4181 152.579 19.3774C152.685 19.3368 152.77 19.2839 152.835 19.2188C152.909 19.1536 152.97 19.0845 153.019 19.0112C153.067 18.9299 153.104 18.8322 153.128 18.7183C153.153 18.6043 153.165 18.527 153.165 18.4863C153.173 18.4456 153.173 18.3398 153.165 18.1689C153.165 17.998 153.165 17.8963 153.165 17.8638V12.1631C153.157 11.3574 152.998 10.7715 152.689 10.4053C152.388 10.0391 151.79 9.85596 150.895 9.85596C150.007 9.85596 148.994 10.1408 147.855 10.7104V18.3887C147.855 18.5677 147.896 18.759 147.977 18.9624C148.067 19.1577 148.225 19.3001 148.453 19.3896C148.681 19.4792 148.795 19.5687 148.795 19.6582C148.795 19.8861 148.742 20 148.636 20H145.047C144.942 20 144.889 19.9268 144.889 19.7803C144.889 19.6338 144.921 19.5402 144.986 19.4995C145.06 19.4588 145.145 19.4181 145.243 19.3774C145.348 19.3368 145.43 19.2879 145.487 19.231C145.552 19.1659 145.609 19.0967 145.658 19.0234C145.707 18.9421 145.743 18.877 145.768 18.8281C145.792 18.7712 145.808 18.6938 145.816 18.5962C145.833 18.4904 145.841 18.4212 145.841 18.3887C145.849 18.348 145.849 18.2625 145.841 18.1323C145.841 17.994 145.841 17.9045 145.841 17.8638V11.4062C145.816 10.9261 145.617 10.6779 145.243 10.6616C144.982 10.6535 144.848 10.568 144.84 10.4053ZM173.441 11.5161C172.961 10.1408 171.923 9.45312 170.328 9.45312C169.604 9.45312 168.941 9.64844 168.338 10.0391C167.736 10.4215 167.272 10.9139 166.947 11.5161C166.629 12.1102 166.471 12.6717 166.471 13.2007C166.471 13.7297 166.487 13.9901 166.52 13.9819L173.417 11.5771V11.5039L173.441 11.5161ZM166.788 15.2759C167.138 16.2362 167.728 16.9889 168.558 17.5342C169.388 18.0794 170.332 18.3521 171.39 18.3521C172.733 18.3521 173.958 17.7214 175.064 16.46C175.235 16.2972 175.488 16.3826 175.821 16.7163C175.846 16.7407 175.842 16.7773 175.809 16.8262C174.881 18.112 174.161 18.9339 173.648 19.292C172.778 19.9105 171.773 20.2197 170.633 20.2197C169.86 20.2197 169.111 20.0651 168.387 19.7559C166.898 19.1048 165.836 18.0632 165.201 16.6309C164.876 15.8984 164.713 15.0317 164.713 14.0308C164.713 13.0216 164.965 12.0532 165.47 11.1255C165.982 10.1896 166.719 9.45312 167.679 8.91602C168.648 8.37891 169.758 8.11035 171.012 8.11035C172.542 8.11035 173.901 8.81836 175.089 10.2344C175.691 10.9505 175.992 11.5202 175.992 11.9434L166.788 15.2759ZM177.872 10.4053L177.884 10.1855C177.884 10.1449 177.905 10.1123 177.945 10.0879C177.994 10.0553 178.023 10.035 178.031 10.0269L180.228 8.40332C180.261 8.37891 180.35 8.3667 180.497 8.3667C180.651 8.3667 180.757 8.38704 180.814 8.42773C180.871 8.46029 180.899 8.56608 180.899 8.74512V10.8447C180.948 10.7633 181.013 10.6738 181.095 10.5762C181.681 9.84375 182.291 9.27816 182.926 8.87939C183.561 8.48063 184.285 8.28125 185.099 8.28125C185.359 8.28125 185.501 8.3138 185.526 8.37891C185.664 8.75326 185.778 9.10726 185.868 9.44092L186.246 10.8813C186.271 10.9709 186.205 11.0604 186.051 11.1499C185.904 11.2313 185.79 11.2679 185.709 11.2598C185.628 11.2516 185.542 11.1743 185.453 11.0278L185.318 10.8081C184.879 10.4012 184.366 10.2425 183.78 10.332C183.202 10.4134 182.653 10.625 182.132 10.9668C181.62 11.3086 181.241 11.6789 180.997 12.0776C180.989 12.0939 180.969 12.1265 180.936 12.1753C180.912 12.216 180.899 12.2445 180.899 12.2607V17.8638C180.899 17.9045 180.895 17.994 180.887 18.1323C180.887 18.2625 180.887 18.348 180.887 18.3887C180.952 18.9014 181.127 19.2188 181.412 19.3408C181.697 19.4629 181.843 19.5687 181.852 19.6582C181.852 19.8861 181.799 20 181.693 20H178.08C177.974 20 177.921 19.9268 177.921 19.7803C177.921 19.6338 177.953 19.5402 178.019 19.4995C178.084 19.4588 178.165 19.4181 178.263 19.3774C178.368 19.3368 178.45 19.2879 178.507 19.231C178.629 19.1089 178.722 18.9705 178.788 18.8159C178.861 18.6532 178.893 18.4619 178.885 18.2422C178.885 18.0225 178.885 17.8963 178.885 17.8638V11.4062C178.877 11.1377 178.808 10.9505 178.678 10.8447C178.556 10.7308 178.421 10.6698 178.275 10.6616C178.128 10.6535 178.031 10.6331 177.982 10.6006C177.909 10.5436 177.872 10.4785 177.872 10.4053ZM190.531 2.2876V3.27637C190.531 3.35775 190.51 3.41471 190.47 3.44727C190.429 3.47982 190.254 3.55306 189.945 3.66699C189.644 3.78092 189.42 3.87451 189.273 3.94775C189.127 4.021 189.001 4.07389 188.895 4.10645C188.797 4.139 188.736 4.14307 188.712 4.11865C188.688 4.0861 188.675 3.92741 188.675 3.64258V2.48291C188.675 2.4585 188.671 2.42188 188.663 2.37305C188.663 2.32422 188.663 2.29167 188.663 2.27539C188.671 2.25911 188.675 2.2347 188.675 2.20215C188.683 2.1696 188.704 2.13704 188.736 2.10449C188.769 2.07194 188.936 1.9987 189.237 1.88477C189.546 1.77083 189.774 1.67725 189.92 1.604C190.254 1.44938 190.437 1.39242 190.47 1.43311C190.51 1.46566 190.531 1.75049 190.531 2.2876ZM187.748 20C187.642 20 187.589 19.9268 187.589 19.7803C187.589 19.6338 187.621 19.5402 187.687 19.4995C187.752 19.4588 187.837 19.4181 187.943 19.3774C188.342 19.2147 188.545 18.8241 188.553 18.2056V11.4062C188.553 11.1458 188.488 10.9587 188.358 10.8447C188.228 10.7308 188.089 10.6698 187.943 10.6616C187.796 10.6535 187.695 10.6291 187.638 10.5884C187.581 10.5477 187.552 10.4663 187.552 10.3442C187.552 10.214 187.556 10.1408 187.564 10.1245C187.581 10.1082 187.605 10.092 187.638 10.0757C187.67 10.0513 187.691 10.035 187.699 10.0269L189.896 8.40332C189.953 8.36263 189.998 8.35449 190.03 8.37891C190.063 8.39518 190.16 8.42773 190.323 8.47656C190.486 8.52539 190.567 8.61491 190.567 8.74512V18.2544C190.567 18.8485 190.767 19.2228 191.166 19.3774C191.402 19.4751 191.52 19.5687 191.52 19.6582C191.52 19.8861 191.467 20 191.361 20H187.748ZM203.678 16.8384C203.808 16.7082 204.044 16.814 204.386 17.1558C204.41 17.1802 204.406 17.2168 204.374 17.2656C202.949 19.235 201.24 20.2197 199.247 20.2197C198.473 20.2197 197.725 20.0651 197 19.7559C195.511 19.1048 194.449 18.0632 193.814 16.6309C193.489 15.8984 193.326 15.0317 193.326 14.0308C193.326 13.0216 193.578 12.0532 194.083 11.1255C194.596 10.1896 195.332 9.45312 196.292 8.91602C197.261 8.37891 198.412 8.11035 199.747 8.11035C201.082 8.11035 202.225 8.58643 203.177 9.53857C203.185 9.54671 203.263 9.59961 203.409 9.69727C203.425 9.71354 203.425 9.7583 203.409 9.83154L202.75 11.8823C202.709 12.0044 202.66 12.0736 202.604 12.0898C202.547 12.098 202.445 12.0776 202.298 12.0288C202.152 11.98 202.07 11.9393 202.054 11.9067C202.038 11.8742 202.005 11.6789 201.957 11.3208C201.916 10.9546 201.765 10.6494 201.505 10.4053C200.838 9.77051 199.983 9.45312 198.941 9.45312C198.217 9.45312 197.554 9.64844 196.952 10.0391C196.349 10.4215 195.886 10.9139 195.56 11.5161C195.243 12.1102 195.084 12.8182 195.084 13.6401C195.084 14.4621 195.304 15.2515 195.743 16.0083C196.183 16.7651 196.773 17.347 197.513 17.7539C198.262 18.1527 199.047 18.3521 199.869 18.3521C200.699 18.3439 201.407 18.2218 201.993 17.9858C202.587 17.7498 203.149 17.3674 203.678 16.8384ZM207.792 16.9116C207.792 17.4569 208.028 17.8678 208.5 18.1445C208.972 18.4131 209.452 18.5474 209.94 18.5474C210.428 18.5474 210.79 18.527 211.026 18.4863C211.271 18.4456 211.519 18.3724 211.771 18.2666C212.243 18.0713 212.662 17.8678 213.028 17.6562C213.028 17.6562 213.22 17.5505 213.602 17.3389L212.894 14.0918C212.601 14.2057 212.239 14.3319 211.808 14.4702L210.636 14.8364C208.74 15.4061 207.792 16.0978 207.792 16.9116ZM212.662 12.8345C212.418 10.6047 211.771 9.48975 210.721 9.48975C210.078 9.48975 209.517 9.72168 209.037 10.1855C208.565 10.6413 208.329 11.1784 208.329 11.7969L208.438 12.2974C208.438 12.3625 208.357 12.4642 208.194 12.6025C208.04 12.7409 207.934 12.7856 207.877 12.7368L206.461 10.918C206.461 10.8122 206.55 10.6942 206.729 10.564C206.917 10.4338 207.075 10.3035 207.206 10.1733L207.499 9.89258C207.922 9.4694 208.219 9.20085 208.39 9.08691L208.988 8.69629C209.574 8.3138 210.225 8.12256 210.941 8.12256C211.991 8.12256 212.788 8.40739 213.333 8.97705C213.708 9.36768 213.968 9.75423 214.115 10.1367C214.261 10.5111 214.367 10.8162 214.432 11.0522C214.57 11.5568 214.684 12.1427 214.774 12.8101L214.908 13.75C214.957 14.1243 215.006 14.4743 215.055 14.7998C215.112 15.1253 215.148 15.3491 215.165 15.4712C215.181 15.5851 215.222 15.7926 215.287 16.0938C215.352 16.3867 215.413 16.6309 215.47 16.8262C215.641 17.404 215.84 17.8394 216.068 18.1323C216.296 18.4172 216.548 18.5596 216.825 18.5596C217.11 18.5596 217.309 18.4782 217.423 18.3154C217.634 18.0062 217.789 17.8516 217.887 17.8516C217.936 17.8516 218.017 17.9085 218.131 18.0225C218.245 18.1364 218.302 18.2218 218.302 18.2788C218.302 18.3358 218.172 18.527 217.911 18.8525C217.659 19.1699 217.37 19.4832 217.044 19.7925C216.727 20.1017 216.499 20.2563 216.361 20.2563C215.84 20.2563 215.344 20.0529 214.872 19.646C214.408 19.231 214.123 18.7956 214.017 18.3398C213.749 18.584 213.293 18.881 212.65 19.231C211.38 19.9146 210.363 20.2563 209.598 20.2563C208.833 20.2563 208.186 20.1465 207.657 19.9268C207.136 19.707 206.701 19.3693 206.351 18.9136C206.009 18.4578 205.838 17.9818 205.838 17.4854C205.838 16.9889 205.908 16.5739 206.046 16.2402C206.184 15.9066 206.363 15.6217 206.583 15.3857C206.803 15.1416 207.075 14.9178 207.401 14.7144C207.726 14.5028 208.056 14.3278 208.39 14.1895C209.09 13.9046 209.863 13.6523 210.709 13.4326C211.563 13.2048 212.215 13.0054 212.662 12.8345Z" fill="white"/>
</svg>
